<?xml version="1.0" encoding="utf-8"?>
<!-- Generator: Adobe Illustrator 16.0.0, SVG Export Plug-In . SVG Version: 6.00 Build 0)  -->
<!DOCTYPE svg PUBLIC "-//W3C//DTD SVG 1.1//EN" "http://www.w3.org/Graphics/SVG/1.1/DTD/svg11.dtd">
<svg version="1.1" id="Capa_1" xmlns="http://www.w3.org/2000/svg" xmlns:xlink="http://www.w3.org/1999/xlink" x="0px" y="0px"
	 width="595.279px" height="841.891px" viewBox="0 0 595.279 841.891" enable-background="new 0 0 595.279 841.891"
	 xml:space="preserve">
<g id="XMLID_11_">
	<polygon id="XMLID_1047_" fill="#ACABB1" points="364.278,446.391 394.205,416.464 409.17,177.046 358.566,102.229 
		299.461,350.279 339.074,516.523 	"/>
	<polygon id="XMLID_1048_" fill="#ACABB1" points="277.584,565.92 299.455,565.951 299.461,565.951 277.601,565.92 259.848,516.523 
		248.053,566.026 277.607,565.982 	"/>
	<path id="XMLID_1050_" fill="#DEDDE0" d="M350.87,566.026l-11.797-49.503l-39.612-166.244l-59.106-248.051l-50.601,74.817
		l14.964,239.417l29.927,29.927l25.205,70.132l17.752,49.397L350.87,566.026z M322.655,513.728c0,12.396-10.05,22.444-22.445,22.444
		s-22.445-10.049-22.445-22.444s10.05-22.444,22.445-22.444S322.655,501.331,322.655,513.728z"/>
	<path id="XMLID_1053_" fill="#FF9811" d="M404.955,566.1c-18.668,0-36,5.702-50.362,15.45l-3.674-15.523h-0.049H248.053h-0.048
		l-3.674,15.523c-14.362-9.748-31.696-15.45-50.363-15.45c-49.586,0-89.782,40.196-89.782,89.782
		c0,49.584,40.194,89.781,89.782,89.781c40.632,0,74.941-26.998,86.013-64.026l0.036,0.107l19.442-54.5l19.441,54.5l0.039-0.107
		c11.072,37.028,45.382,64.026,86.015,64.026c49.586,0,89.782-40.197,89.782-89.781C494.736,606.295,454.541,566.1,404.955,566.1z
		 M193.968,700.771c-24.793,0-44.89-20.099-44.89-44.891c0-24.791,20.097-44.893,44.89-44.893c24.793,0,44.892,20.102,44.892,44.893
		C238.86,680.673,218.761,700.771,193.968,700.771z M404.955,700.771c-24.794,0-44.891-20.099-44.891-44.891
		c0-24.791,20.097-44.893,44.891-44.893s44.891,20.102,44.891,44.893C449.845,680.673,429.749,700.771,404.955,700.771z"/>
</g>
</svg>
