<?xml version="1.0" encoding="utf-8"?>
<!-- Generator: Adobe Illustrator 16.0.0, SVG Export Plug-In . SVG Version: 6.00 Build 0)  -->
<!DOCTYPE svg PUBLIC "-//W3C//DTD SVG 1.1//EN" "http://www.w3.org/Graphics/SVG/1.1/DTD/svg11.dtd">
<svg version="1.1" id="Capa_1" xmlns="http://www.w3.org/2000/svg" xmlns:xlink="http://www.w3.org/1999/xlink" x="0px" y="0px"
	 width="595.279px" height="722.445px" viewBox="0 119.445 595.279 722.445" enable-background="new 0 119.445 595.279 722.445"
	 xml:space="preserve">
<g>
	<path fill="#8B8892" d="M423.445,344.021L244.725,193.66c-4.086-3.405-9.499-3.928-14.475-2.401l-11.576,53.722l151.923,426.197
		l24.446,49.886l41.29-71.311l11.687-225.516L423.445,344.021z"/>
	<path fill="#8B8892" d="M350.147,641.962L82.755,374.57l-43.776,0.119l3.2,45.977l78.297,238.661l58.172,62.979h211.913
		c1.523-0.422,3.001-0.833,4.482-1.242L350.147,641.962z"/>
</g>
<g>
	<path fill="#AEADB3" d="M32.787,387.071c-1.085,2.166-1.647,4.555-1.647,6.976v219.17c0,4.908,2.312,9.53,6.238,12.478
		l125.694,93.491c2.699,2.023,5.983,3.119,9.358,3.119h6.217L38.979,374.689L32.787,387.071z"/>
	<path fill="#AEADB3" d="M398.578,720.084l156.859-93.492c4.693-2.813,7.562-7.886,7.562-13.357V518.68
		c0-3.532-1.201-6.957-3.408-9.716L433.899,353.146c-0.734-0.749-1.464-1.493-2.199-2.245l-8.255-6.88l-0.005,0.002l-28.459,376.839
		l0.062,0.202C396.21,720.741,397.378,720.417,398.578,720.084z"/>
</g>
<path fill="#787780" d="M230.25,191.259c-0.816,0.251-1.688,0.044-2.469,0.433l-124.662,62.724c-3.018,1.508-5.461,3.952-6.97,6.969
	l-57.17,113.304l356.064,346.375L230.25,191.259z"/>
</svg>
